<svg width="1134" height="241" viewBox="0 0 1134 241" fill="none" xmlns="http://www.w3.org/2000/svg">
<g clip-path="url(#clip0_3303_2607)">
<path d="M361.8 49.6201H403.9C403.9 56.3201 403.9 65.2201 404 71.6201C408.8 66.4201 412.4 62.6201 416.8 59.1201C417.5 58.6201 438.1 41.0201 466.8 55.0201C485.2 64.0201 493.5 79.9201 494.2 99.4201C495.7 138.52 494.9 181.92 494.9 186.72H452.9C453 183.92 453 142.02 453 110.32C452.9 104.32 453.9 97.3201 450 91.7201C444.5 83.9201 434.2 83.7201 426.8 86.0201C405.5 92.6201 404 113.02 404 116.72V186.72H361.8V49.6201Z" fill="#282828"/>
<path d="M847.9 49.6201H890C890 56.3201 890 65.2201 890.1 71.6201C894.9 66.4201 898.5 62.6201 902.9 59.1201C903.6 58.6201 924.2 41.0201 952.9 55.0201C971.3 64.0201 979.6 79.9201 980.3 99.4201C981.8 138.52 981 181.92 981 186.72H939C939.1 183.92 939.1 142.02 939.1 110.32C939 104.32 940 97.3201 936.1 91.7201C930.6 83.9201 920.3 83.7201 912.9 86.0201C891.6 92.6201 890.2 113.02 890.1 116.72V186.72H847.9V49.6201Z" fill="#282828"/>
<path d="M275.1 50.02C235.6 50.82 204.3 79.72 204.2 118.72C204.1 160.92 231.7 187.32 271.5 189.52C311.7 191.72 346.1 161.02 346.6 120.72C347.2 80.32 315 50.32 275.1 50.02ZM275.4 155.32C257.4 155.32 242.9 139.42 242.9 119.82C242.9 100.22 257.5 84.32 275.4 84.32C293.3 84.32 307.9 100.22 307.9 119.82C307.9 139.42 293.4 155.32 275.4 155.32Z" fill="#282828"/>
<path d="M60.4 51.72C60.4 51.82 60.5 51.82 60.5 51.92H86.8V85.62H60.1V187.12H18V85.62H0V51.82H18.4V47.22C18.4 42.82 18.7 38.52 19.5 34.22C20.4 29.42 21.8 24.72 24.7 20.52C27.6 16.22 30.9 11.62 35.2 9.01998C52.4 -1.78002 70.8 -2.18002 89.6 4.11998C92.8 5.21998 99.5 8.51998 101.2 9.71998C96.6 18.92 92.4 27.32 87.8 36.32C83.6 35.42 79.4 34.42 75 33.82C65.1 32.52 57.1 42.32 60.4 51.72Z" fill="#282828"/>
<path d="M101.7 49.6201H141.5V80.0201C151.1 57.6201 175.3 45.9201 197.8 51.2201V88.3201C196.2 88.6201 180.6 87.8201 165.9 95.2201C148.7 103.82 142.1 118.72 141.7 137.02C141.4 151.92 141.6 183.82 141.6 187.02H101.6L101.7 49.6201Z" fill="#282828"/>
<path d="M615 6.12012H657.2V187.02H615V6.12012Z" fill="#282828"/>
<path d="M672 51.9199H715.3L751.6 141.12L790.7 51.9199H832.1L748.7 240.02H705.4L733.3 184.12L672 51.9199Z" fill="#282828"/>
<path d="M1133.2 117.72C1133.2 78.2201 1102 46.1201 1063.5 46.1201C1051.3 46.1201 1039.8 49.3201 1029.8 55.0201C1008.4 67.2201 993.9 90.7201 993.9 117.72C993.9 121.92 994.3 126.12 994.9 130.12C1001.4 162.32 1033.9 186.72 1070.1 186.72C1090.4 186.72 1111.7 175.12 1125.1 162.72L1103.3 141.12C1096.2 147.02 1083.1 154.72 1071.9 154.72C1052.9 154.72 1037.1 144.22 1033.7 130.22H1132.1C1132.8 126.02 1133.2 121.92 1133.2 117.72ZM1036.9 101.02C1036.9 90.0201 1048 81.0201 1062.1 80.1201C1062.9 80.1201 1063.7 80.0201 1064.5 80.0201C1079 80.0201 1090.8 88.5201 1091.9 99.4201C1092 99.9201 1092.1 100.42 1092.1 101.02H1036.9Z" fill="#282828"/>
<path d="M567.4 85.72V139.52C567.7 149.02 571.9 152.72 581.6 152.22C586.2 152.02 590.8 151.42 596 150.92V183.72C588 186.82 568.8 188.92 552.7 186.22C542.4 184.42 533.9 175.22 529.3 161.32C528.6 159.32 528 156.92 527.5 154.22C526.7 149.92 526.4 145.52 526.4 141.12V85.72H507.1L507.2 51.92H526.7V20.52H567.5V51.92H596.2L596.1 85.72H567.4Z" fill="#282828"/>
</g>
<defs>
<clipPath id="clip0_3303_2607">
<rect width="1133.2" height="240.02" fill="white"/>
</clipPath>
</defs>
</svg>
