<svg width="303" height="60" viewBox="0 0 303 60" fill="none" xmlns="http://www.w3.org/2000/svg">
<path d="M2.75 31V8.125H14.8125V10.6094H5.46875V17.1719H14.8125V19.7031H5.46875V31H2.75ZM19.9688 31V8.125H25.3438C26.875 8.125 27.9948 8.21354 28.7031 8.39062C29.4219 8.55729 30.0521 8.84896 30.5938 9.26562C31.2708 9.79688 31.7969 10.5104 32.1719 11.4062C32.5469 12.2917 32.7344 13.276 32.7344 14.3594C32.7344 16.2344 32.2083 17.6615 31.1562 18.6406C30.1146 19.6094 28.5833 20.0938 26.5625 20.0938H26.0781L34.8125 31H31.3594L23.0156 20.0938H22.625V31H19.9688ZM22.625 10.4219V18.0781H24.7031C26.8281 18.0781 28.25 17.8073 28.9688 17.2656C29.6875 16.7135 30.0469 15.7552 30.0469 14.3906C30.0469 12.9219 29.6771 11.8958 28.9375 11.3125C28.1979 10.7188 26.7865 10.4219 24.7031 10.4219H22.625ZM49.2656 29.0469C50.5156 29.0469 51.7031 28.8125 52.8281 28.3438C53.9635 27.8646 54.9844 27.1719 55.8906 26.2656C56.7865 25.3698 57.4688 24.3542 57.9375 23.2188C58.4062 22.0833 58.6406 20.8802 58.6406 19.6094C58.6406 18.3281 58.401 17.1094 57.9219 15.9531C57.4531 14.7969 56.776 13.776 55.8906 12.8906C54.9948 11.9948 53.9792 11.3125 52.8438 10.8438C51.7188 10.375 50.526 10.1406 49.2656 10.1406C47.9948 10.1406 46.7917 10.375 45.6562 10.8438C44.5208 11.3125 43.5156 11.9948 42.6406 12.8906C41.7448 13.7969 41.0625 14.8229 40.5938 15.9688C40.125 17.1146 39.8906 18.3281 39.8906 19.6094C39.8906 20.8802 40.1198 22.0781 40.5781 23.2031C41.0469 24.3281 41.7344 25.349 42.6406 26.2656C43.5573 27.1823 44.5729 27.875 45.6875 28.3438C46.8125 28.8125 48.0052 29.0469 49.2656 29.0469ZM61.4844 19.6094C61.4844 21.2448 61.1823 22.7865 60.5781 24.2344C59.974 25.6823 59.0938 26.9688 57.9375 28.0938C56.7812 29.2188 55.4479 30.0885 53.9375 30.7031C52.4375 31.3073 50.8802 31.6094 49.2656 31.6094C47.651 31.6094 46.0938 31.3073 44.5938 30.7031C43.1042 30.0885 41.7812 29.2188 40.625 28.0938C39.4583 26.9583 38.5677 25.6667 37.9531 24.2188C37.349 22.7708 37.0469 21.2344 37.0469 19.6094C37.0469 17.974 37.349 16.4323 37.9531 14.9844C38.5677 13.526 39.4583 12.2292 40.625 11.0938C41.7708 9.97917 43.0938 9.11979 44.5938 8.51562C46.0938 7.91146 47.651 7.60938 49.2656 7.60938C50.8906 7.60938 52.4531 7.91146 53.9531 8.51562C55.4635 9.11979 56.7917 9.97917 57.9375 11.0938C59.0938 12.2188 59.974 13.5104 60.5781 14.9688C61.1823 16.4167 61.4844 17.9635 61.4844 19.6094ZM66.9375 31V7.21875L83.6719 25.5V8.125H86.2656V31.8906L69.5312 13.8125V31H66.9375ZM96.75 31V10.7188H90.2812V8.125H105.938V10.7188H99.5V31H96.75ZM109.969 31V8.125H112.688V28.4062H121.328V31H109.969ZM128.25 31V20.5312L120.5 8.125H123.641L129.625 18.0469L135.578 8.125H138.703L130.969 20.5312V31H128.25ZM142.531 31V7.21875L159.266 25.5V8.125H161.859V31.8906L145.125 13.8125V31H142.531ZM168.344 31V8.125H180.406V10.6094H171.062V17.1719H180.406V19.7031H171.062V28.4688H180.406V31H168.344Z" fill="#282828"/>
</svg>
